<svg xmlns="http://www.w3.org/2000/svg" viewBox="0 0 114 114.01"><defs><style>.cls-1{stroke:#000;stroke-miterlimit:10;}.cls-2{fill:#fff;}</style></defs><title>icon</title><g id="background"><polygon class="cls-1" points="0.5 1.5 0.5 112.5 112.5 113.5 113.5 0.5 0.5 1.5"/></g><g id="logo"><path class="cls-2" d="M51,25c1.49.22,11.63,1.88,17,11a22.45,22.45,0,0,1,3,12H36a19.11,19.11,0,0,1,14-6l3-6a23.29,23.29,0,0,0-14.44,2.8A23.57,23.57,0,0,0,28,52H69a50.24,50.24,0,0,1-5,10A51.37,51.37,0,0,1,49,77h6a29.1,29.1,0,0,1-7.25,4A29.5,29.5,0,0,1,30,82a24.6,24.6,0,0,1-7-3c-8-6-9-11-9-11s7.07,12.25,19,9c22-6,25-19,25-19-11,.33-20-.33-31,0,.09.59.21,1.21.38,1.88A21.7,21.7,0,0,0,28,62H50c-4.54,5.43-17,13-25,9a12.4,12.4,0,0,1-7-11C17,47,29.86,34.38,40,32c.12,0,7-2,11-2h3Z" transform="translate(1 1)"/><path class="cls-2" d="M58,76H73l8-22H72l-2,4h5v2H69S65,71,58,76Z" transform="translate(1 1)"/><g id="Layer_4" data-name="Layer 4"><polygon points="73 65 70 72 71 72 74 65 73 65"/></g><polygon class="cls-2" points="74 80 83 55 93 55 85 77 79 77 78 80 74 80"/><polygon class="cls-2" points="85 80 94 55 104 55 96 77 90 77 89 80 85 80"/><g id="Layer_5" data-name="Layer 5"><polygon points="85 59 87 59 82 73 80 73 85 59 85 59"/><polygon points="96 59 98 59 93 73 91 73 96 59 96 59"/></g></g></svg>