<svg xmlns="http://www.w3.org/2000/svg" width="668" height="615" viewBox="0 0 668 615">
  <defs>
    <style>
      .cls-1 {
        fill: #fff;
        fill-rule: evenodd;
      }
    </style>
  </defs>
  <g id="_2" data-name="2">
    <path id="GRAFIKA-SPORTOWA.PL" class="cls-1" d="M2030.16,380.041s1.01-1.14,1.51-1.717c4-4.6,7.96-9.489,11.82-14.658,31.38-42.049,40.17-71.91,43.54-86.574l-267.59-.838s0.18-.441.48-1.151c0.13-.4.39-1.215,0.55-1.687,9.06-27.391,30.06-55.437,61.26-76.086C1944.96,155.5,1999.88,166,1999.88,166l-21.52,41.012s-29.75-4.61-57.42,10.222c-29.33,15.716-33.84,27.334-33.84,27.334l244.91-.551s-5.57,50.754-43.58,113.555a263.268,263.268,0,0,1-37.09,47.193c-0.44.451-1.32,1.338-1.32,1.338L2050,380Zm-25.63-251.033s-79.87-8.484-149.66,39.664c-61.48,42.409-92.83,106.009-85.72,165.214,2.39,19.968,17.63,63.727,79.74,65.886,28.71,1,54.49-10.281,73.89-22.692,28.88-18.468,42.19-35.04,42.79-34.914l-143.99-.5a118.914,118.914,0,0,1-3.22-15.222,115.734,115.734,0,0,1-.78-16.494l214.38-.152s-2.45,10.3-20.76,35.01a273.808,273.808,0,0,1-28.41,31.824c-68.64,63.137-159.06,78.289-211.7,35.678-55.57-44.993-54.15-146.8,9.21-224.022,79.65-97.066,177.16-94.356,201.04-94.264Z" transform="translate(-1623)"/>
    <path id="AP" class="cls-1" d="M2001.55,520h41.48l-6.35-126.01H1991.3L1905.99,520h41.31l12.16-19.044h41.84Zm-23.23-48.766,22.31-35.063,0.38,35.063h-22.69Zm202.09-34q6.18-19.755-2.47-31.5t-31.7-11.747h-54.96L2051.9,520h39.36l12.51-40.045h15.6a66.1,66.1,0,0,0,27.75-5.7,61.566,61.566,0,0,0,21.04-15.395,59.212,59.212,0,0,0,12.25-21.625h0Zm-55.73,11.569h-11.17l7.23-23.137h11.17q12.225,0,8.62,11.568-3.63,11.573-15.85,11.569h0Z" transform="translate(-1623)"/>
  </g>
</svg>
