<svg xmlns="http://www.w3.org/2000/svg" viewBox="0 0 423.04 449.25"><defs><style>.cls-1{fill:#fff;}.cls-2{font-size:155px;font-family:Montserrat-ExtraBold, Montserrat;font-weight:800;letter-spacing:0.05em;}.cls-3{letter-spacing:0.07em;}</style></defs><title>crest_2</title><g id="Layer_3" data-name="Layer 3"><g id="Layer_6" data-name="Layer 6"><path class="cls-1" d="M373,252.56s221.78-26.23,240.89,0,32,63.11,40.44,63.55,36.61,23.8,36.61,23.8L676.11,465.74s29.53,53-179.57,210.79c-2.21,1.67-202.84-130.36-205.91-342.64-.22-15.41,67.39-9.49,75.47-87.11Z" transform="translate(-282.6 -228.62)"/></g><path d="M703,329.09l-15.46-8.48a117.54,117.54,0,0,1-32.64-25.69A115,115,0,0,1,632.91,257l-6.1-17L625.75,237l-3.12-.34-17.92-2a1007.34,1007.34,0,0,0-221.2,0l-17.92,2-3.12.34-1.06,3-6.09,17a114.72,114.72,0,0,1-21.94,37.95,117.65,117.65,0,0,1-32.64,25.69l-15.45,8.48-2.69,1.47.08,3.07.46,17.61a466.41,466.41,0,0,0,7.23,72.43,331.08,331.08,0,0,0,21.32,71A335.16,335.16,0,0,0,378.3,594c27.28,28.26,60.73,53.42,99.42,74.79l14,7.72,2.43,1.34,2.43-1.34,14-7.73c38.72-21.38,72.17-46.55,99.42-74.79a334.65,334.65,0,0,0,66.61-99.37,329.59,329.59,0,0,0,21.3-71,463.17,463.17,0,0,0,7.24-72.44l.48-17.61.08-3.07ZM494.11,654.21l-6.38-3.53c-36.91-20.39-68.71-44.29-94.53-71a314.47,314.47,0,0,1-62.52-93.24,309.77,309.77,0,0,1-19.94-66.52,444.13,444.13,0,0,1-6.9-69.18l-.22-8.05,7.07-3.87a138.29,138.29,0,0,0,38.25-30.19A135,135,0,0,0,374.81,264l2.78-7.75,8.2-.91a984,984,0,0,1,216.64,0l8.19.91,2.79,7.75a135.87,135.87,0,0,0,25.87,44.64,138.3,138.3,0,0,0,38.26,30.19l7.07,3.86-.22,8.06a443.48,443.48,0,0,1-6.9,69.18,309.29,309.29,0,0,1-19.94,66.52A314.28,314.28,0,0,1,595,579.64c-25.81,26.75-57.62,50.65-94.53,71Z" transform="translate(-282.6 -228.62)"/></g><g id="Layer_5" data-name="Layer 5"><text class="cls-2" transform="translate(94.5 250.45)">V<tspan class="cls-3" x="127.1" y="0">S</tspan></text></g></svg>