<svg xmlns="http://www.w3.org/2000/svg" xmlns:xlink="http://www.w3.org/1999/xlink" viewBox="0 0 112 112"><defs><style>.cls-1{fill:#fff;}.cls-2{fill:none;stroke:#000;stroke-miterlimit:10;}.cls-3{fill:url(#linear-gradient);}</style><linearGradient id="linear-gradient" x1="-4.44" y1="106.71" x2="116.44" y2="5.29" gradientUnits="userSpaceOnUse"><stop offset="0" stop-color="#fff" stop-opacity="0.8"/><stop offset="0.65" stop-color="#fff" stop-opacity="0.97"/><stop offset="0.74" stop-color="#fff"/></linearGradient></defs><title>do tla</title><g id="Layer_3" data-name="Layer 3"><rect class="cls-1" width="112" height="112"/></g><g id="logo"><path class="cls-2" d="M63.13,101"/><path d="M69.49,15.15s-25.15-.81-45.57,16.23-23,38-23,38S-3.27,85.47,6.2,99.27,31.89,112,31.89,112s16.66.91,34.49-13.66C80.44,86.83,84,76.28,84,76.28l-59.91-.41s.36,7.09.9,9l40,.36S53.22,99.94,34.91,101,12.28,88.85,12.28,88.85a42.14,42.14,0,0,1,7.31-37.68A66.78,66.78,0,0,1,52.86,27.91s18.57-3.34,23.53-2.53Z"/><path d="M69.22,47.54l5.88-11.7s-14.73-2.31-30.9,7.3C30.07,51.55,24.73,66.68,24.73,66.68l74.47.45S96.13,90.21,64.13,111.3c-1,.67,14.78.7,14.78.7S107.76,90.84,112,57.66l-68.43.18A26.78,26.78,0,0,1,51,51.16,28.33,28.33,0,0,1,69.22,47.54Z"/></g><g id="Layer_4" data-name="Layer 4"><rect class="cls-3" width="112" height="112"/></g></svg>