<svg id="Layer_1" data-name="Layer 1" xmlns="http://www.w3.org/2000/svg" viewBox="0 0 16 12"><defs><style>.cls-1{stroke:#000;stroke-miterlimit:10;}</style></defs><title>player</title><path d="M15,14a1,1,0,0,0,1-1c0-1-1-4-5-4s-5,3-5,4a1,1,0,0,0,1,1ZM7,13H7a3.07,3.07,0,0,1,.76-1.72A4,4,0,0,1,11,10a4,4,0,0,1,3.24,1.28A3.07,3.07,0,0,1,15,13H7Zm4-6A2,2,0,1,0,9,5,2,2,0,0,0,11,7Zm3-2a3,3,0,1,1-3-3A3,3,0,0,1,14,5ZM6.94,9.28A5.84,5.84,0,0,0,5.71,9C5.47,9,5.24,9,5,9c-4,0-5,3-5,4a.88.88,0,0,0,1,1H5.22A2.15,2.15,0,0,1,5,13a4.59,4.59,0,0,1,1.09-2.9A5.1,5.1,0,0,1,6.94,9.28Zm-2,.72A5.52,5.52,0,0,0,4,13H1a3,3,0,0,1,.76-1.72A4,4,0,0,1,4.92,10ZM1.5,5.5a3,3,0,1,1,3,3A3,3,0,0,1,1.5,5.5Zm3-2a2,2,0,1,0,2,2A2,2,0,0,0,4.5,3.5Z" transform="translate(0 -2)"/><line class="cls-1" x1="8.56" y1="7.89" x2="8.56" y2="11.19"/><line class="cls-1" x1="11" y1="7.89" x2="11" y2="11.19"/><line class="cls-1" x1="13.39" y1="7.89" x2="13.39" y2="11.19"/><line class="cls-1" x1="2.5" y1="8" x2="2.5" y2="11.31"/><line class="cls-1" x1="4.5" y1="7.69" x2="4.5" y2="11"/></svg>